# xmcd
#
# Track frame offsets: 
#        150
#        4550
#        25867
#        47090
#        66072
#        84990
#        111337
#        135602
#        158400
#        182075
#        208660
#        229347
#        252772
#        277270
#        310290
#
# Disc length: 4397 seconds
#
# Revision: 1
# Processed by: cddbd v1.5.2PL0 Copyright (c) Steve Scherf et al.
# Submitted via: ExactAudioCopy v0.95b4
#
DISCID=c7112b0f
DTITLE=CARON WHEELER - Beach Of the War Goddess
DYEAR=1993
DGENRE=R&B
TTITLE0=Respect To The Motherland
TTITLE1=In Our Love
TTITLE2=I Adore You
TTITLE3=Wonder
TTITLE4=Gotta Give It Up
TTITLE5=Beach Of The War Goddess
TTITLE6=Soul Street
TTITLE7=Lite As A Feather
TTITLE8=Need A Man
TTITLE9=Father
TTITLE10=Naughty Eyes
TTITLE11=Wind Cries Mary
TTITLE12=Do You Care
TTITLE13=Land Of Life
TTITLE14=In Our Love (Club Remix)
EXTD=
EXTT0=
EXTT1=
EXTT2=
EXTT3=
EXTT4=
EXTT5=
EXTT6=
EXTT7=
EXTT8=
EXTT9=
EXTT10=
EXTT11=
EXTT12=
EXTT13=
EXTT14=
PLAYORDER=
